<?xml version="1.0" encoding="UTF-8" standalone="no"?>
<svg
   xmlns:dc="http://purl.org/dc/elements/1.1/"
   xmlns:cc="http://creativecommons.org/ns#"
   xmlns:rdf="http://www.w3.org/1999/02/22-rdf-syntax-ns#"
   xmlns:svg="http://www.w3.org/2000/svg"
   xmlns="http://www.w3.org/2000/svg"
   xmlns:sodipodi="http://sodipodi.sourceforge.net/DTD/sodipodi-0.dtd"
   xmlns:inkscape="http://www.inkscape.org/namespaces/inkscape"
   version="1.1"
   width="550"
   height="260"
   id="svg19"
   viewBox="0 0 550 260"
   sodipodi:docname="OBA_logo.svg"
   inkscape:version="0.92.4 (5da689c313, 2019-01-14)">
  <metadata
     id="metadata25">
    <rdf:RDF>
      <cc:Work
         rdf:about="">
        <dc:format>image/svg+xml</dc:format>
        <dc:type
           rdf:resource="http://purl.org/dc/dcmitype/StillImage" />
        <dc:title></dc:title>
      </cc:Work>
    </rdf:RDF>
  </metadata>
  <defs
     id="defs23" />
  <sodipodi:namedview
     pagecolor="#ffffff"
     bordercolor="#666666"
     borderopacity="1"
     objecttolerance="10"
     gridtolerance="10"
     guidetolerance="10"
     inkscape:pageopacity="1"
     inkscape:pageshadow="2"
     inkscape:window-width="1296"
     inkscape:window-height="704"
     id="namedview21"
     showgrid="false"
     inkscape:zoom="0.39645504"
     inkscape:cx="420.94489"
     inkscape:cy="103.37176"
     inkscape:window-x="70"
     inkscape:window-y="27"
     inkscape:window-maximized="1"
     inkscape:current-layer="Layer1000" />
  <g
     id="Layer1000"
     transform="translate(-4.8046875e-8,-315.09674)">
    <rect
       id="rect3736"
       width="509.51553"
       height="42.88002"
       x="28.854744"
       y="529.55396"
       style="fill:#e30016;fill-opacity:1;stroke-width:0.58022982" />
    <path
       d="m 15.592356,418.60848 c 0,-19.1845 2.8909,-35.3034 8.6291,-48.3559 4.2486,-9.5925 10.118,-18.2212 17.5202,-25.8425 7.4022,-7.6214 15.5054,-13.272 24.3093,-16.9951 11.7388,-4.9492 25.2731,-7.4458 40.603394,-7.4458 27.77,0 49.9331,8.6287 66.6214,25.8425 16.644,17.2575 24.9664,41.2165 24.9664,71.921 0,30.4415 -8.2784,54.2693 -24.7912,71.4391 -16.5132,17.2139 -38.6326,25.7986 -66.2708,25.7986 -27.988794,0 -50.283394,-8.5411 -66.796194,-25.6674 -16.5132,-17.0822 -24.7916,-40.647 -24.7916,-70.6945 z"
       style="fill:#009035;fill-rule:evenodd"
       id="path2"
       inkscape:connector-curvature="0" />
    <path
       d="m 203.07475,323.38558 h 75.2497 c 14.936,0 26.0177,0.6131 33.3324,1.8395 7.3586,1.2702 13.885,3.8547 19.6664,7.7529 5.7818,3.9419 10.5999,9.1543 14.4545,15.6807 3.8543,6.5264 5.7818,13.8846 5.7818,21.9879 0,8.7602 -2.3654,16.8635 -7.0959,24.1781 -4.7304,7.3586 -11.1692,12.8337 -19.2725,16.5128 11.4321,3.3728 20.1923,9.067 26.3684,17.1262 6.1321,8.0593 9.1982,17.5206 9.1982,28.4268 0,8.5851 -1.9711,16.9071 -5.957,25.0103 -3.9858,8.1032 -9.4173,14.5857 -16.3376,19.4477 -6.8768,4.818 -15.3743,7.7965 -25.4922,8.9354 -6.3073,0.6571 -21.594,1.095 -45.8157,1.2701 h -64.0805 z"
       style="fill:#009035;fill-rule:evenodd"
       id="path4"
       inkscape:connector-curvature="0" />
    <path
       d="m 539.32555,511.55398 c -62.898,0 -125.7963,0 -188.6943,0 l 73.0599,-188.1684 h 40.2531 z"
       style="fill:#009035;fill-rule:evenodd"
       id="path6"
       inkscape:connector-curvature="0" />
    <path
       d="m 416.46705,449.94478 c -1.072,22.761 12.0153,41.1688 20.2939,47.6735 -1.5525,-5.8486 -2.8244,-11.7354 -3.7048,-17.5776 -2.6069,-17.3056 1.188,-33.3423 7.2706,-49.4913 0.421,-1.1223 2.1358,-0.6483 1.8032,0.5279 -4.9936,17.6602 -7.1497,34.1948 -2.8264,52.2535 1.3151,5.4967 2.904,10.9084 4.6278,16.2771 8.0103,-3.4487 26.4695,-23.042 27.6008,-47.0703 1.2547,-26.6767 -24.2901,-70.1472 -24.2901,-70.1472 0,0 -29.4414,39.2269 -30.775,67.5544 z"
       style="fill:#ffffff;fill-rule:evenodd"
       id="path8"
       inkscape:connector-curvature="0" />
    <path
       d="m 120.42455,381.76528 c -7.9869,7.9874 -17.0354,5.4212 -18.71439,3.7422 -1.6784,-1.6784 -4.005604,-10.9659 3.74279,-18.7142 7.7483,-7.7483 23.7735,-8.8014 23.7735,-8.8014 0,0 -0.8146,15.7861 -8.8019,23.7734 z"
       style="fill:#ffffff;fill-rule:evenodd"
       id="path10"
       inkscape:connector-curvature="0" />
    <path
       d="m 89.583656,448.89498 c -0.5326,0.5467 -1.2382,0.8216 -1.9453,0.8216 -0.6828,0 -1.3652,-0.2556 -1.8923,-0.7691 -7.0573,-6.8666 -11.6292,-15.3275 -12.872,-23.8248 -1.4313,-9.7819 1.7259,-19.7618 8.2371,-26.0455 1.0782,-1.04 2.7977,-1.0102 3.838,0.0686 1.0405,1.0788 1.0103,2.7965 -0.068,3.837 -5.275,5.0904 -7.8183,13.273 -6.6362,21.3541 1.0707,7.3226 5.0787,14.6816 11.2858,20.7201 1.0747,1.0455 1.098,2.7638 0.0529,3.838 z m 54.127494,-45.7845 c -2.9504,-5.8777 -7.5994,-9.6437 -12.4674,-11.3157 -7.6616,-2.6305 -17.2951,-0.8119 -25.0358,5.0112 -7.740794,-5.8231 -17.374294,-7.6417 -25.035794,-5.0112 -4.8679,1.672 -9.5156,5.438 -12.4675,11.3157 -5.0798,10.1122 -4.3909,24.9293 0.2835,35.0636 8.3544,18.1096 23.8838,27.9233 37.219794,19.2782 13.3359,8.6451 28.8653,-1.1686 37.2208,-19.2782 4.6753,-10.1343 5.3612,-24.9514 0.2824,-35.0636 z"
       style="fill:#ffffff;fill-rule:evenodd"
       id="path12"
       inkscape:connector-curvature="0" />
    <path
       d="m 116.42635,564.75088 v -22.9257 h -3.4772 v 9.7886 h -9.3056 v -9.7886 h -3.47749 v 22.9257 h 3.47749 v -10.0139 h 9.3056 v 10.0139 z m 21.6377,-11.4627 c 0,-4.4113 0.0644,-6.9551 -2.1894,-9.2089 -1.5778,-1.5778 -3.6063,-2.4472 -6.0534,-2.4472 -2.4472,0 -4.4436,0.8694 -6.0214,2.4472 -2.2538,2.2538 -2.2215,4.7976 -2.2215,9.2089 0,4.4113 -0.0323,6.9548 2.2215,9.2089 1.5778,1.5778 3.5742,2.4471 6.0214,2.4471 2.4471,0 4.4756,-0.8693 6.0534,-2.4471 2.2538,-2.2541 2.1894,-4.7976 2.1894,-9.2089 z m -3.4775,0 c 0,4.6043 -0.2253,5.8924 -1.3521,7.1158 -0.8051,0.8694 -2.0608,1.4168 -3.4132,1.4168 -1.3524,0 -2.6082,-0.5474 -3.4132,-1.4168 -1.1268,-1.2234 -1.3524,-2.5115 -1.3524,-7.1158 0,-4.6046 0.2256,-5.8927 1.3524,-7.1161 0.805,-0.8694 2.0608,-1.4168 3.4132,-1.4168 1.3524,0 2.6081,0.5474 3.4132,1.4168 1.1268,1.2234 1.3521,2.5115 1.3521,7.1161 z m 25.3409,11.4627 -5.2807,-10.1426 c 2.5759,-0.7084 4.5723,-2.8015 4.5723,-6.0857 0,-3.896 -2.7692,-6.6974 -7.1161,-6.6974 h -8.8869 v 22.9257 h 3.4776 v -9.6596 h 4.3469 l 4.8297,9.6596 z m -4.1859,-16.196 c 0,2.2538 -1.5778,3.5739 -3.8963,3.5739 h -5.1516 v -7.1801 h 5.1516 c 2.3185,0 3.8963,1.3521 3.8963,3.6062 z m 22.6357,-3.6062 v -3.1235 h -16.0993 v 3.1235 h 6.311 v 19.8022 h 3.4773 v -19.8022 z m 7.4382,19.8022 v -22.9257 h -3.4776 v 22.9257 z m 20.6396,-19.8022 v -3.1235 h -14.6506 v 22.9257 h 3.4775 v -9.6919 h 9.531 v -3.1232 h -9.531 v -6.9871 z m 20.8973,19.8022 -5.2807,-10.1426 c 2.5759,-0.7084 4.5723,-2.8015 4.5723,-6.0857 0,-3.896 -2.7692,-6.6974 -7.1161,-6.6974 h -8.8869 v 22.9257 h 3.4775 v -9.6596 h 4.347 l 4.8296,9.6596 z m -4.186,-16.196 c 0,2.2538 -1.5777,3.5739 -3.8962,3.5739 h -5.1517 v -7.1801 h 5.1517 c 2.3185,0 3.8962,1.3521 3.8962,3.6062 z m 24.6643,8.4682 v -15.1979 h -3.4773 v 15.0369 c 0,3.0589 -1.8997,4.9587 -4.7656,4.9587 -2.8655,0 -4.7333,-1.8998 -4.7333,-4.9587 v -15.0369 h -3.4775 v 15.1979 c 0,4.7333 3.5419,7.9211 8.2108,7.9211 4.669,0 8.2429,-3.1878 8.2429,-7.9211 z m 19.7059,-12.0744 v -3.1235 h -16.0994 v 3.1235 h 6.3111 v 19.8022 h 3.4772 v -19.8022 z m 7.4381,19.8022 v -22.9257 h -3.4775 v 22.9257 z m 32.7464,0 -3.8316,-4.5723 c 1.5455,-1.8031 2.1895,-4.1215 2.2861,-7.0514 h -3.1555 c -0.0323,2.0928 -0.3863,3.4129 -1.2234,4.6043 l -4.83,-5.7637 c 0.5474,-0.3864 1.6745,-1.1591 1.6745,-1.1591 1.4487,-0.9981 2.4468,-2.2538 2.4468,-4.0569 0,-2.9302 -2.1895,-5.1197 -5.4414,-5.1197 -3.4132,0 -5.6026,2.1572 -5.6026,5.0874 0,2.1251 1.3524,3.7352 2.3828,4.9263 -2.2541,1.4814 -4.5403,3.2845 -4.5403,6.4721 0,4.1536 2.6405,6.8263 7.4058,6.8263 3.4775,0 5.345,-1.5777 6.3434,-2.4471 l 1.8674,2.2538 z m -9.7883,-17.9671 c 0,1.0627 -0.773,1.7711 -1.6744,2.3828 0,0 -0.7407,0.5151 -1.0948,0.7407 -1.1594,-1.3524 -1.7711,-2.2218 -1.7711,-3.1555 0,-1.2881 0.8374,-2.2541 2.2541,-2.2541 1.3522,0 2.2862,0.9983 2.2862,2.2861 z m 1.7385,13.3948 c -1.5132,1.3525 -2.8335,1.7711 -4.379,1.7711 -2.3828,0 -4.1536,-1.61 -4.1536,-3.8962 0,-2.1251 1.4168,-3.1875 3.0912,-4.3469 z m 35.8375,-2.2861 h -3.5095 c -0.5474,2.3185 -2.1252,3.9283 -4.669,3.9283 -1.3524,0 -2.5758,-0.5151 -3.3809,-1.3845 -1.127,-1.2237 -1.3847,-2.5438 -1.3847,-7.1481 0,-4.6046 0.2577,-5.9247 1.3847,-7.1484 0.8051,-0.8694 2.0285,-1.3845 3.3809,-1.3845 2.5438,0 4.0893,1.6101 4.6367,3.9283 h 3.5418 c -0.805,-4.5723 -3.9605,-7.0515 -8.1785,-7.0515 -2.3828,0 -4.4436,0.8694 -6.0213,2.4472 -2.2539,2.2538 -2.2215,4.7976 -2.2215,9.2089 0,4.4113 -0.0324,6.9548 2.2215,9.2089 1.5777,1.5778 3.6385,2.4471 6.0213,2.4471 4.1536,0 7.4058,-2.4794 8.1785,-7.0517 z m 20.2853,-4.6043 c 0,-4.4113 0.0644,-6.9551 -2.1894,-9.2089 -1.5778,-1.5778 -3.6063,-2.4472 -6.0534,-2.4472 -2.4472,0 -4.4436,0.8694 -6.0214,2.4472 -2.2538,2.2538 -2.2215,4.7976 -2.2215,9.2089 0,4.4113 -0.0323,6.9548 2.2215,9.2089 1.5778,1.5778 3.5742,2.4471 6.0214,2.4471 2.4471,0 4.4756,-0.8693 6.0534,-2.4471 2.2538,-2.2541 2.1894,-4.7976 2.1894,-9.2089 z m -3.4775,0 c 0,4.6043 -0.2254,5.8924 -1.3521,7.1158 -0.8051,0.8694 -2.0608,1.4168 -3.4132,1.4168 -1.3524,0 -2.6082,-0.5474 -3.4132,-1.4168 -1.1268,-1.2234 -1.3524,-2.5115 -1.3524,-7.1158 0,-4.6046 0.2256,-5.8927 1.3524,-7.1161 0.805,-0.8694 2.0608,-1.4168 3.4132,-1.4168 1.3524,0 2.6081,0.5474 3.4132,1.4168 1.1267,1.2234 1.3521,2.5115 1.3521,7.1161 z m 28.8504,11.4627 v -22.9257 h -3.4775 l -6.5684,14.2642 -6.6975,-14.2642 h -3.4775 v 22.9257 h 3.4775 v -15.3266 l 5.4094,11.173 h 2.5758 l 5.2807,-11.173 v 15.3266 z m 20.6074,0 v -3.1232 h -11.1731 v -6.8907 h 9.5309 v -3.0912 h -9.5309 v -6.6971 h 11.1731 v -3.1235 h -14.6506 v 22.9257 z m -3.2522,-30.3636 h -3.6386 l -2.4148,5.2161 h 2.4794 z m 24.7288,30.3636 -5.2806,-10.1426 c 2.5758,-0.7084 4.5723,-2.8015 4.5723,-6.0857 0,-3.896 -2.7692,-6.6974 -7.1161,-6.6974 h -8.8869 v 22.9257 h 3.4775 v -9.6596 h 4.3469 l 4.8297,9.6596 z m -4.1859,-16.196 c 0,2.2538 -1.5777,3.5739 -3.8962,3.5739 h -5.1517 v -7.1801 h 5.1517 c 2.3185,0 3.8962,1.3521 3.8962,3.6062 z m 24.1492,9.3376 h -3.5096 c -0.5473,2.3185 -2.1251,3.9283 -4.6689,3.9283 -1.3524,0 -2.5758,-0.5151 -3.3809,-1.3845 -1.127,-1.2237 -1.3847,-2.5438 -1.3847,-7.1481 0,-4.6046 0.2577,-5.9247 1.3847,-7.1484 0.8051,-0.8694 2.0285,-1.3845 3.3809,-1.3845 2.5438,0 4.0893,1.6101 4.6366,3.9283 h 3.5419 c -0.805,-4.5723 -3.9605,-7.0515 -8.1785,-7.0515 -2.3828,0 -4.4436,0.8694 -6.0214,2.4472 -2.2538,2.2538 -2.2215,4.7976 -2.2215,9.2089 0,4.4113 -0.0323,6.9548 2.2215,9.2089 1.5778,1.5778 3.6386,2.4471 6.0214,2.4471 4.1536,0 7.4058,-2.4794 8.1785,-7.0517 z m 8.1142,6.8584 v -22.9257 h -3.4775 v 22.9257 z m 21.6377,-11.4627 c 0,-4.4113 0.0643,-6.9551 -2.1895,-9.2089 -1.5777,-1.5778 -3.6062,-2.4472 -6.0534,-2.4472 -2.4471,0 -4.4436,0.8694 -6.0213,2.4472 -2.2539,2.2538 -2.2215,4.7976 -2.2215,9.2089 0,4.4113 -0.0324,6.9548 2.2215,9.2089 1.5777,1.5778 3.5742,2.4471 6.0213,2.4471 2.4472,0 4.4757,-0.8693 6.0534,-2.4471 2.2538,-2.2541 2.1895,-4.7976 2.1895,-9.2089 z m -3.4775,0 c 0,4.6043 -0.2254,5.8924 -1.3522,7.1158 -0.805,0.8694 -2.0608,1.4168 -3.4132,1.4168 -1.3524,0 -2.6081,-0.5474 -3.4132,-1.4168 -1.1267,-1.2234 -1.3524,-2.5115 -1.3524,-7.1158 0,-4.6046 0.2257,-5.8927 1.3524,-7.1161 0.8051,-0.8694 2.0608,-1.4168 3.4132,-1.4168 1.3524,0 2.6082,0.5474 3.4132,1.4168 1.1268,1.2234 1.3522,2.5115 1.3522,7.1161 z"
       style="fill:#ffffff;fill-rule:evenodd"
       id="path16"
       inkscape:connector-curvature="0" />
  </g>
</svg>
